<svg width="1434" height="808" viewBox="0 0 1434 808">
    <defs>
      <clipPath id="my-clip-path">
        <path d="M0.00649968 416.5C1.2065 598.9 138.507 655.5 258.507 637C277.507 710 298.007 758.459 433.507 799.5C537.507 831 617.507 766 649.007 735.5C668.173 751.5 716.707 786.7 757.507 799.5C798.307 812.3 863.84 804.833 891.507 799.5C929.673 804.167 987.007 824.928 1075.01 772C1130.21 738.8 1170.34 668.167 1183.51 637C1228.01 659 1352.05 637 1401.51 545.5C1484.31 392.3 1389.01 297 1290.01 266.5C1298.01 249 1277.51 187 1207.01 123C1120.7 44.6505 997.173 65.4998 942.507 89.4997C933.007 70.4997 858.007 0.000299459 757.507 0C631.076 -0.000376722 563.507 100.166 545.507 152C531.673 144.5 510.007 129.117 433.507 134C377.107 137.6 319.673 180.167 298.007 201C164.007 150 -1.1935 234.1 0.00649968 416.5Z" />
      </clipPath>
    </defs>
</svg>
