<svg xmlns="http://www.w3.org/2000/svg" version="1.1" width="80" height="80" x="0" y="0" viewBox="0 0 53 53"
     style="enable-background:new 0 0 512 512">
    <path d="m5.7 47.8c.4.2.9.3 1.4.3.5.1 1 .1 1.3.1 2.1 0 14.5.1 17.1.1l19.5-.1c1.9 0 3.8-.9 4.9-2.4.6-.7 1-1.6 1.2-2.5.1-.5.1-.9.1-1.4 0-2.3 0-3.5-.1-11 0-2.4-.1-7.9-.2-12.2 0-.8 0-1.8-.3-2.6-.6-1.7-1.9-3.1-3.6-3.7-.7-.4-1.6-.4-2.4-.4h-.8c-.2-1.8-.5-3.6-.9-5.3-.2-.7-.6-1.2-1.2-1.6-.3-.2-.6-.3-1-.3-.4-.1-.6 0-.8-.1-1.8-.1-4.1-.1-5.7 0-.2 0-.4 0-.8.1-.3.1-.7.2-1 .3-.6.3-1 .9-1.2 1.6-.4 1.8-.8 3.7-1 5.6-.9 0-1.7 0-2.6.1 3.3.1 6.5.2 9.8.3.3 0 7.8.2 7.3.2.8 0 1.5.1 2.2.4 1.4.5 2.5 1.7 2.9 3.1.2.7.2 1.4.2 2.2 0 .7 0 3.5 0 3.4-2.9-1-7.5-1-10.5 0-.7-1.1-1.5-2.2-2.5-3.1-2.8-2.6-6.6-4-10.4-3.8 3.7.2 7.2 1.8 9.7 4.5 2.5 2.6 3.8 6.2 3.7 9.7s-1.5 6.9-4 9.3-5.9 3.8-9.3 3.8c-3.5 0-6.9-1.4-9.3-3.8-2.5-2.4-4-5.8-4-9.3-.1-3.5 1.3-7.1 3.7-9.7 2.4-2.7 6-4.3 9.7-4.5-3.7-.2-7.5 1.2-10.4 3.8-1 .9-1.8 2-2.5 3.1-3-1.1-7.5-1-10.5 0 0-.2-.1-4.3-.1-4.1 0-.4 0-.7.1-1.1.1-.7.5-1.4.9-2 .7-1.1 2.2-1.8 3.6-1.9 6.5-.2 13-.3 19.5-.5-4.1-.1-8.1-.2-12.2-.3.1-.4.3-.7.4-1.1.1-.2.1-.5.2-.7.1-.3 0-.6 0-.9-.3-1.3-1.5-2.3-2.9-2.3s-2.6 1-2.9 2.3c-.1.3-.1.6 0 .9 0 .3.1.5.2.7.1.3.2.7.3 1-.8 0-1.7 0-2.5-.1-1.8 0-3.6.8-4.7 2.2-.6.7-1 1.5-1.2 2.4-.1.5-.2 1-.2 1.4v1.2c-.2 12.9-.3 15.1-.3 19.6v2.4c0 .7 0 1.8.3 2.7.6 1.8 2 3.3 3.8 4zm31.5-35.6c-2.4 0-4.8.1-7.1.2.9-1.7 1.7-3.4 2.4-5.1.1-.2.4-.4.6-.5.3-.1.4-.1 1-.1 1.6.1 3.9.1 5.7 0 .6 0 .7-.1 1 .1.2 0 .4.2.5.5.6 1.6 1.4 3.2 2.2 4.8-.1 0-6.6.1-6.3.1zm-26.1-1.2c.1-.5.1-.7.4-1.1.4-.5.9-.8 1.4-.8.8 0 1.4.5 1.6 1.2.1.2.1.5.2.7.1.4.2.7.4 1.1-1.4 0-2.9-.1-4.3-.1.1-.3.2-.6.3-1zm2.3 11.6c-1.1 2-1.8 4.4-1.8 6.7-.1 3.9 1.5 7.9 4.3 10.7s6.7 4.5 10.7 4.5 7.9-1.6 10.7-4.5c2.8-2.8 4.4-6.8 4.3-10.7 0-2.4-.7-4.7-1.8-6.7 3 1 7.4.9 10.2-.1l-.1 8.3c-.1 7.4-.1 8.8-.1 11 0 .4 0 .7-.1 1-.2.7-.5 1.3-.9 1.8-.9 1.1-2.2 1.7-3.6 1.7l-19.5-.1c-1.8 0 6.3 0-17.1.1-.4 0-.8 0-1.1 0s-.7-.1-1-.2c-1.3-.4-2.3-1.5-2.7-2.8-.2-.7-.2-1.3-.2-2.1 0-3.5 0-5.7-.1-12.2l-.1-6.4c2.6.9 7 .9 10 0z"
          fill="#fff"/>
    <path d="m26.5 38.1c2.3-.1 4.5-1.1 6-2.8s2.2-3.9 2-6c-.2 2.1-1.2 4-2.7 5.3s-3.4 2-5.3 1.9-3.7-.9-5-2.2-2-3.2-2-5 .7-3.7 2-5c1.3-1.4 3.1-2.2 5-2.2 1.9-.1 3.8.6 5.3 1.9s2.5 3.2 2.7 5.3c.2-2.1-.5-4.4-2-6-1.5-1.7-3.7-2.7-6-2.8s-4.7.8-6.3 2.5c-1.7 1.6-2.7 4-2.7 6.3 0 2.4 1 4.7 2.7 6.3s4 2.6 6.3 2.5z"
          fill="#fff"/>
    <path d="m23.3 26c-.8.8-1.2 2.3-.3 3.2.4-.5.7-.8 1-1.1l.8-.8.8-.8c.3-.3.6-.6 1.1-1-1.2-.6-2.6-.3-3.4.5z" fill="#fff"
    />
    <path d="m45.7 18.1c-.9-.9-2.4-1.3-3.8-.8-.4.2-.8.4-1.3.8.4.4.8.6 1.3.8 1.4.5 2.9.1 3.8-.8z" fill="#fff"
    />
    <path d="m38 8.2c-.7-.3-1.4-.3-2.1 0-.3.2-.7.4-1 .8.3.4.7.6 1 .8.7.3 1.4.3 2.1 0 .3-.2.7-.4 1-.8-.3-.5-.7-.7-1-.8z"
          fill="#fff"/>
</svg>
