<svg width="24" height="24" viewBox="0 0 24 24" fill="none" xmlns="http://www.w3.org/2000/svg">
<path d="M13.4086 11.9952L17.7045 7.70877C17.8926 7.52063 17.9983 7.26544 17.9983 6.99936C17.9983 6.73328 17.8926 6.47809 17.7045 6.28994C17.5164 6.10179 17.2612 5.99609 16.9952 5.99609C16.7291 5.99609 16.474 6.10179 16.2859 6.28994L12 10.5864L7.71414 6.28994C7.52602 6.10179 7.27087 5.99609 7.00483 5.99609C6.73878 5.99609 6.48363 6.10179 6.29551 6.28994C6.10739 6.47809 6.0017 6.73328 6.0017 6.99936C6.0017 7.26544 6.10739 7.52063 6.29551 7.70877L10.5914 11.9952L6.29551 16.2817C6.20187 16.3746 6.12755 16.4851 6.07683 16.6069C6.02611 16.7286 6 16.8592 6 16.9911C6 17.123 6.02611 17.2536 6.07683 17.3754C6.12755 17.4971 6.20187 17.6077 6.29551 17.7005C6.38839 17.7942 6.49888 17.8685 6.62062 17.9193C6.74236 17.97 6.87294 17.9961 7.00483 17.9961C7.13671 17.9961 7.26729 17.97 7.38903 17.9193C7.51077 17.8685 7.62127 17.7942 7.71414 17.7005L12 13.4041L16.2859 17.7005C16.3787 17.7942 16.4892 17.8685 16.611 17.9193C16.7327 17.97 16.8633 17.9961 16.9952 17.9961C17.1271 17.9961 17.2576 17.97 17.3794 17.9193C17.5011 17.8685 17.6116 17.7942 17.7045 17.7005C17.7981 17.6077 17.8724 17.4971 17.9232 17.3754C17.9739 17.2536 18 17.123 18 16.9911C18 16.8592 17.9739 16.7286 17.9232 16.6069C17.8724 16.4851 17.7981 16.3746 17.7045 16.2817L13.4086 11.9952Z" fill="#707070"/>
</svg>
