<svg width="24" height="24" viewBox="0 0 24 24" fill="none" xmlns="http://www.w3.org/2000/svg">
<path fill-rule="evenodd" clip-rule="evenodd" d="M3.70711 2.29289C3.31658 1.90237 2.68342 1.90237 2.29289 2.29289C1.90237 2.68342 1.90237 3.31658 2.29289 3.70711L5.19714 6.61135C3.62522 8.0494 2.71583 9.73653 2.26959 10.7388C1.91113 11.544 1.91164 12.4538 2.26991 13.2584C3.13924 15.2107 5.89136 19.9982 12.0001 19.9982C14.0912 19.9982 15.8051 19.43 17.1844 18.5986L20.2929 21.7071C20.6834 22.0976 21.3166 22.0976 21.7071 21.7071C22.0976 21.3166 22.0976 20.6834 21.7071 20.2929L3.70711 2.29289ZM15.7157 17.1299L14.032 15.4462C13.4366 15.798 12.7417 16.0003 12 16.0003C9.79086 16.0003 8 14.2094 8 12.0003C8 11.2586 8.20236 10.5637 8.55409 9.9683L6.61308 8.02729C5.28499 9.21774 4.49281 10.6626 4.0967 11.5523C3.96902 11.8391 3.96903 12.1575 4.09697 12.4448C4.88995 14.2257 7.14489 17.9982 12.0001 17.9982C13.4774 17.9982 14.7016 17.6545 15.7157 17.1299ZM10.0677 11.4819C10.0235 11.6472 10 11.8209 10 12.0003C10 13.1049 10.8954 14.0003 12 14.0003C12.1794 14.0003 12.3531 13.9768 12.5184 13.9326L10.0677 11.4819ZM12.0003 4C18.1092 4 20.8611 8.78782 21.7302 10.7401C22.0885 11.5448 22.0885 12.4552 21.7302 13.2599C21.5746 13.6096 21.3658 14.0352 21.0963 14.5009C20.8197 14.9789 20.208 15.1421 19.7299 14.8655C19.2519 14.5889 19.0887 13.9772 19.3653 13.4991C19.5948 13.1025 19.7722 12.7407 19.9031 12.4465C20.0309 12.1595 20.0309 11.8405 19.9031 11.5535C19.1103 9.77274 16.8556 6 12.0003 6L11 6.00001C10.4477 6.00001 10 5.5523 10 5.00002C9.99999 4.44773 10.4477 4.00001 11 4.00001L12.0003 4Z" fill="#202020"/>
</svg>
