<svg xmlns="http://www.w3.org/2000/svg" version="1.1" xmlns:xlink="http://www.w3.org/1999/xlink" width="26" height="26" x="0" y="0" viewBox="0 0 512 512" style="enable-background:new 0 0 512 512" xml:space="preserve" class=""><g><path d="M512 256c0-16.084-1.509-32.183-4.497-47.813-1.348-7.075-7.544-12.188-14.736-12.188H257c-8.291 0-15 6.709-15 15v90c0 8.291 6.709 15 15 15h120.967c-7.537 15.258-17.924 28.497-30.121 39.635l84.78 84.78C481.407 393.939 512 328.539 512 256zM256 120c29.429 0 57.422 9.346 80.947 27.041 5.947 4.468 14.341 3.926 19.614-1.392l64.014-64.014c2.974-2.974 4.57-7.061 4.38-11.265s-2.124-8.13-5.347-10.84C373.803 21.138 315.692 0 256 0 168.151 0 90.542 44.654 44.663 112.452l88.048 88.048C153.717 153.184 200.979 120 256 120zM256 512c57.263 0 109.993-19.2 152.602-51.187l-86.371-86.371C302.489 385.558 279.925 392 256 392c-55.021 0-102.283-33.184-123.289-80.5l-88.048 88.048C90.542 467.346 168.151 512 256 512zM122.184 277.605C121.035 270.526 120 263.397 120 256s1.035-14.526 2.184-21.605L28.06 140.271C10.252 175.051 0 214.316 0 256s10.252 80.949 28.061 115.728z" fill="#7ecde4" data-original="#000000" opacity="1" class=""></path></g></svg>