<svg width="24" height="24" viewBox="0 0 24 24" fill="none" xmlns="http://www.w3.org/2000/svg">
<path d="M20.9999 12.3873C20.9999 11.6322 20.9387 11.0812 20.806 10.5098H12.1836V13.9179H17.2448C17.1428 14.7648 16.5918 16.0403 15.3672 16.8974L15.3501 17.0115L18.0763 19.1235L18.2652 19.1424C19.9999 17.5403 20.9999 15.1832 20.9999 12.3873Z" fill="#4285F4"/>
<path d="M12.1846 21.3674C14.6642 21.3674 16.7458 20.5511 18.2663 19.1429L15.3683 16.8979C14.5928 17.4388 13.552 17.8163 12.1846 17.8163C9.75606 17.8163 7.69483 16.2143 6.96006 14L6.85236 14.0091L4.01754 16.2031L3.98047 16.3061C5.49067 19.3061 8.59274 21.3674 12.1846 21.3674Z" fill="#34A853"/>
<path d="M6.95915 14.0001C6.76527 13.4287 6.65307 12.8164 6.65307 12.1838C6.65307 11.5511 6.76527 10.9388 6.94895 10.3674L6.94381 10.2457L4.07348 8.0166L3.97957 8.06127C3.35715 9.30619 3 10.7042 3 12.1838C3 13.6633 3.35715 15.0613 3.97957 16.3062L6.95915 14.0001Z" fill="#FBBC05"/>
<path d="M12.1846 6.55099C13.909 6.55099 15.0723 7.29588 15.7356 7.91837L18.3274 5.38775C16.7356 3.90816 14.6641 3 12.1846 3C8.59271 3 5.49066 5.0612 3.98047 8.06117L6.94985 10.3673C7.69481 8.15304 9.75602 6.55099 12.1846 6.55099Z" fill="#EB4335"/>
</svg>
