<svg width="26" height="25" viewBox="0 0 26 25" fill="none" xmlns="http://www.w3.org/2000/svg">
    <path d="M0.292723 10.4161L11.9366 0.210616C12.2585 -0.0702055 12.7448 -0.0702055 13.0667 0.210616L24.7105 10.4161C25.0667 10.7243 25.1009 11.2654 24.7927 11.6216C24.4777 11.9777 23.9434 12.012 23.5872 11.7038L22.6831 10.9161V23.649C22.6831 24.1216 22.2996 24.5051 21.827 24.5051H15.3407H9.67629H3.18999C2.71738 24.5051 2.33382 24.1216 2.33382 23.649V10.9161L1.42971 11.7038C1.26533 11.8476 1.0667 11.9161 0.868065 11.9161C0.62834 11.9161 0.395464 11.8202 0.22423 11.6216C-0.104536 11.2654 -0.0634403 10.7312 0.292723 10.4161ZM14.4777 22.7928V15.738H10.5256V22.7928H14.4777ZM4.03245 9.41609V22.786H8.80642V14.8818C8.80642 14.4092 9.18998 14.0257 9.66259 14.0257H15.3338C15.8064 14.0257 16.19 14.4092 16.19 14.8818V22.7928H20.964V9.41609V9.40925L12.4982 1.99144L4.03245 9.41609Z"
          fill="white"/>
    <path d="M14.416 8.01876C14.416 8.49137 14.0325 8.87493 13.5599 8.87493H11.4366C10.964 8.87493 10.5804 8.49137 10.5804 8.01876C10.5804 7.54616 10.964 7.1626 11.4366 7.1626H13.5599C14.0325 7.1626 14.416 7.54616 14.416 8.01876Z"
          fill="white"/>
</svg>
