<svg width="12" height="16" viewBox="0 0 12 16" fill="none" xmlns="http://www.w3.org/2000/svg">
<path d="M11.2509 3.98046C11.1951 3.76842 11.0797 3.53778 10.9942 3.34061C9.97116 0.881654 7.73168 0 5.92745 0C3.5094 0 0.845838 1.62195 0.492432 4.96256V5.64705C0.492432 5.67681 0.503592 5.92977 0.514752 6.05998C0.715636 7.65216 1.9693 9.34479 2.91047 10.937C3.91861 12.6445 4.96767 14.3222 6.00557 16C6.64542 14.9063 7.28527 13.794 7.91024 12.73C8.08136 12.4176 8.27853 12.1051 8.44965 11.8037C8.56497 11.6066 8.78074 11.4057 8.88118 11.2197C9.88932 9.37083 11.515 7.50708 11.515 5.67309V4.91792C11.5113 4.72075 11.2657 4.0251 11.2509 3.98046ZM5.96837 7.41036C5.25783 7.41036 4.48034 7.05323 4.09717 6.07485C4.04137 5.91861 4.04509 5.60613 4.04509 5.57637V5.13368C4.04509 3.88374 5.10903 3.31457 6.03161 3.31457C7.16995 3.31457 8.04788 4.22599 8.04788 5.36432C8.04788 6.49894 7.10671 7.41036 5.96837 7.41036Z" fill="#12B6ED"/>
</svg>
