<svg xmlns="http://www.w3.org/2000/svg"  viewBox="0 0 60 60" fill="none">
    <ellipse cx="7.52312" cy="7.4379" rx="3.95232" ry="3.9574" fill="#3F76C1"/>
    <ellipse cx="53.0553" cy="7.4379" rx="3.95232" ry="3.9574" fill="#F8BC26"/>
    <ellipse cx="53.0553" cy="52.7087" rx="3.95232" ry="3.9574" fill="#F48F44"/>
    <ellipse cx="7.52312" cy="52.7087" rx="3.95232" ry="3.9574" fill="#97C069"/>
    <path d="M21.165 1.49384L18.9078 9.02246L18.1173 11.5552L17.4849 14.4045L17.3268 17.2538L17.3268 20.1032L17.9592 21.6861L18.5916 22.9525L19.2239 23.9023L19.8563 24.5354L20.4887 25.1686L21.1211 25.6435L21.7534 26.1184L22.3858 26.435L23.0182 26.7516L23.6505 27.0682L24.2829 27.3848L25.2315 27.7014L26.18 28.018L27.1286 28.4928L27.7639 28.8096L27.7614 28.8094L26.4962 29.2843L24.7572 29.6009L19.2239 29.6009L17.643 29.2843L16.6945 28.9677L15.4297 28.4928L14.4812 28.018L13.5326 27.0682L12.584 25.6435L11.9517 24.5354L11.6355 23.1108L11.4774 22.0027L11.6355 17.2538L11.9517 14.4045L12.584 11.5552L13.2164 9.02246L15.5639 1.33794e-06L21.165 1.49384Z" fill="#3F76C1"/>
    <path d="M1.64632 21.3307L9.13984 18.823L11.6599 17.9486L14.5018 17.2191L17.3562 16.9589L20.2148 16.8551L21.8195 17.4231L23.1067 18.0027L24.0762 18.5938L24.7281 19.1964L25.38 19.7991L25.8731 20.4075L26.3662 21.0159L26.7005 21.63L27.0347 22.2442L27.369 22.8584L27.7033 23.4725L28.0459 24.3995L28.3885 25.3266L28.89 26.2478L29.2244 26.8648L29.2242 26.8624L29.6673 25.5933L29.9391 23.8611L29.7933 18.3862L29.434 16.8335L29.0914 15.9065L28.5817 14.6724L28.0802 13.7512L27.1024 12.8472L25.6481 11.9606L24.5198 11.3752L23.0822 11.1143L21.9663 10.9982L17.2062 11.3276L14.356 11.7443L11.5141 12.4738L8.98986 13.1917L2.65356e-05 15.8431L1.64632 21.3307Z" fill="#3F76C1"/>
    <path d="M21.4625 58.3477L19.0887 50.8021L18.2594 48.2639L17.5803 45.4061L17.3701 42.544L17.3162 39.6804L17.9113 38.0837L18.5125 36.8052L19.1196 35.8448L19.7327 35.2027L20.3458 34.5605L20.9619 34.0774L21.578 33.5944L22.1971 33.2704L22.8162 32.9464L23.4353 32.6224L24.0544 32.2984L24.986 31.9716L25.9176 31.6447L26.8463 31.1587L27.4683 30.8346L27.4658 30.8348L26.2062 30.3691L24.4812 30.0669L19.0117 30.1176L17.455 30.4503L16.5233 30.7772L15.2821 31.2661L14.3535 31.752L13.4338 32.7153L12.5232 34.1558L11.919 35.2752L11.6335 36.7099L11.4982 37.825L11.7443 42.5962L12.1108 45.4569L12.7898 48.3147L13.4629 50.8543L15.9541 59.9005L21.4625 58.3477Z" fill="#97C069"/>
    <path d="M58.5448 39.101L50.9545 41.2977L48.4006 42.0674L45.5311 42.6792L42.6685 42.8215L39.8081 42.8074L38.228 42.1737L36.9658 41.5416L36.0214 40.911L35.3949 40.282L34.7683 39.653L34.3006 39.0248L33.833 38.3966L33.5242 37.7692L33.2155 37.1418L32.9067 36.5144L32.598 35.8869L32.2937 34.9466L31.9895 34.0062L31.5264 33.0651L31.2176 32.4348L31.2177 32.4373L30.7228 33.687L30.38 35.4066L30.3006 40.8828L30.5958 42.449L30.9 43.3893L31.3586 44.6434L31.8217 45.5845L32.7616 46.528L34.1781 47.4739L35.2814 48.1052L36.7071 48.4252L37.8172 48.5872L42.5868 48.4542L45.4518 48.1554L48.3212 47.5437L50.8729 46.9304L59.9641 44.6518L58.5448 39.101Z" fill="#F48F44"/>
    <path d="M39.2011 1.47878L41.3821 9.08278L42.1474 11.6412L42.7471 14.5169L42.8642 17.388L42.8205 20.2576L42.1529 21.8457L41.4902 23.115L40.8323 24.0654L40.1793 24.6969L39.5262 25.3285L38.8756 25.8007L38.225 26.2728L37.5768 26.5855L36.9287 26.8983L36.2805 27.211L35.6323 27.5237L34.6624 27.8334L33.6926 28.1431L32.7203 28.6122L32.0692 28.925L32.0717 28.9248L33.3515 29.4154L35.1158 29.751L40.7449 29.8046L42.3581 29.501L43.328 29.1913L44.6219 28.7253L45.5942 28.2562L46.5737 27.3089L47.5606 25.8832L48.2209 24.7734L48.5644 23.3417L48.7422 22.2272L48.6542 17.4431L48.3762 14.5704L47.7765 11.6947L47.172 9.13783L44.9222 0.0284868L39.2011 1.47878Z" fill="#F8BC26"/>
    <path d="M1.87408 38.9349L9.40247 41.1633L11.9353 41.9441L14.7836 42.5653L17.6299 42.7116L20.4755 42.6996L22.0538 42.0598L23.3158 41.4212L24.2617 40.7841L24.8914 40.1482L25.5211 39.5124L25.9927 38.8772L26.4643 38.242L26.7779 37.6075L27.0914 36.973L27.4049 36.3385L27.7184 35.704L28.0306 34.7529L28.3428 33.8018L28.8131 32.85L29.1267 32.2126L29.1266 32.2151L29.6062 33.4799L29.9297 35.2198L29.953 40.7601L29.6435 42.3443L29.3313 43.2954L28.8623 44.5638L28.3921 45.5156L27.4475 46.4693L26.0287 47.4251L24.9247 48.0629L23.5032 48.3855L22.3972 48.5485L17.6538 48.4102L14.8069 48.1056L11.9586 47.4844L9.42644 46.8619L0.405759 44.5494L1.87408 38.9349Z" fill="#97C069"/>
    <path d="M39.2577 58.4792L41.5511 50.9615L42.3538 48.4326L42.9999 45.5864L43.1717 42.7379L43.1854 39.8886L42.5606 38.3026L41.9344 37.0332L41.3066 36.0804L40.6773 35.4441L40.048 34.8079L39.4179 34.33L38.7878 33.852L38.157 33.5324L37.5261 33.2128L36.8953 32.8931L36.2645 32.5735L35.3174 32.2523L34.3704 31.9311L33.4242 31.4517L32.7904 31.1319L32.7929 31.1321L34.0603 30.6633L35.8008 30.3551L41.334 30.3818L42.9134 30.706L43.8604 31.0272L45.1229 31.5081L46.0691 31.9876L47.0131 32.9419L47.9548 34.3712L48.5818 35.4823L48.8911 36.9085L49.0439 38.0173L48.8629 42.7653L48.533 45.6131L47.887 48.4593L47.2424 50.989L44.8515 60L39.2577 58.4792Z" fill="#F48F44"/>
    <path d="M58.4944 21.0443L50.9811 18.7651L48.4536 17.9673L45.6096 17.3269L42.7643 17.1614L39.9187 17.1542L38.3361 17.7834L37.0698 18.4134L36.1197 19.0442L35.4857 19.6758L34.8517 20.3074L34.3759 20.9393L33.9 21.5713L33.5822 22.2037L33.2644 22.8361L32.9467 23.4685L32.6289 24.1009L32.3103 25.0498L31.9917 25.9988L31.5151 26.9474L31.1972 27.5827L31.1973 27.5802L30.7262 26.3122L30.4144 24.5702L30.4284 19.0298L30.7485 17.4477L31.0671 16.4987L31.5446 15.2335L32.0212 14.2849L32.9722 13.3376L34.3974 12.3914L35.5056 11.761L36.9293 11.448L38.0363 11.2925L42.7787 11.4628L45.6235 11.7866L48.4676 12.4269L50.9955 13.0665L60.0004 15.4397L58.4944 21.0443Z" fill="#F8BC26"/>
</svg>