<svg width="299" height="281" fill="none" xmlns="http://www.w3.org/2000/svg">
    <path d="M264.959.35H33.787C15.153.35 0 15.498 0 34.154v212.461c0 18.634 15.153 33.766 33.787 33.766h231.171c18.634 0 33.771-15.132 33.771-33.766V34.154C298.73 15.498 283.593.35 264.959.35zm-71.785 50.273c18.02 0 32.634 14.615 32.634 32.634s-14.615 32.634-32.634 32.634c-18.025 0-32.634-14.615-32.634-32.634s14.609-32.634 32.634-32.634zm61.189 198.526H49.039c-9.013 0-13.027-6.521-8.964-14.566l56.006-110.93c4.058-8.044 11.792-8.762 17.269-1.605l56.316 73.596c5.477 7.158 15.05 7.767 21.386 1.354l13.777-13.951c6.331-6.413 15.659-5.619 20.826 1.762l35.675 50.959c5.157 7.392 2.046 13.381-6.967 13.381z"
          fill="#EEE"/>
</svg>
