<svg width="25" height="25" viewBox="0 0 25 25" fill="none" xmlns="http://www.w3.org/2000/svg">
    <path d="M21.5596 12.6147H20.2599C20.2599 8.48624 16.896 5.04585 12.6911 5.04585V3.74617C17.5841 3.82263 21.5596 7.79817 21.5596 12.6147ZM12.7676 6.03975V7.33943C15.7492 7.33943 18.1193 9.70946 18.1193 12.6911H19.419C19.3425 9.02139 16.3609 6.03975 12.7676 6.03975ZM12.4618 0C5.58103 0 0 5.58103 0 12.4618C0 19.3425 5.58103 24.9235 12.4618 24.9235C12.9205 24.9235 13.2263 24.5413 13.2263 24.159C13.2263 23.7003 12.9205 23.3945 12.4618 23.3945C6.42201 23.3945 1.52905 18.5015 1.52905 12.4618C1.52905 6.42201 6.42201 1.52905 12.4618 1.52905C18.5015 1.52905 23.3945 6.42201 23.3945 12.4618C23.3945 14.9847 22.0184 17.5076 20.107 18.578C19.419 18.9602 18.6544 19.1896 17.8134 19.1896C18.2722 18.8838 18.7309 18.5015 19.0367 18.0428C19.1131 17.9663 19.1896 17.8899 19.1896 17.737C19.419 17.1254 19.4954 16.4373 19.6483 15.8257C19.8012 14.9847 16.0551 13.4557 15.7492 14.4495C15.5963 14.8318 15.4434 15.9786 15.2141 16.3609C14.9847 16.6667 14.4495 16.5137 14.1437 16.2079C13.3028 15.4434 12.3089 14.3731 11.4679 13.5321L11.3914 13.4556L11.315 13.3792C10.474 12.5382 9.40366 11.6208 8.63913 10.7034C8.33332 10.3976 8.25689 9.86237 8.48624 9.63301C8.79205 9.40365 10.0153 9.25076 10.3976 9.09785C11.3914 8.79204 9.78592 5.04586 9.0214 5.19877C8.40978 5.35167 7.7217 5.35168 7.11008 5.65749C7.03363 5.73394 6.95718 5.81038 6.80428 5.81038C4.6636 7.18653 4.3578 10.474 6.49847 12.9205C7.263 13.8379 8.10398 14.7554 8.94496 15.6728L9.0214 15.7492L9.09785 15.8257C10.0153 16.6667 11.0092 17.9664 12.7676 19.1131C16.3609 21.4832 19.1132 20.8715 20.7187 19.9541C23.5474 18.4251 24.7706 15.1376 24.7706 12.5382C25 5.58104 19.3425 0 12.4618 0Z"
          fill="white"/>
</svg>
