<svg width="17" height="17" fill="none" xmlns="http://www.w3.org/2000/svg">
    <path d="M16.332 12.773c-1.528-1.321-2.942-3.186-2.942-7.84A4.895 4.895 0 008.5.042a4.895 4.895 0 00-4.89 4.89c0 4.658-1.413 6.521-2.943 7.841-.424.37-.667.902-.667 1.46 0 .307.249.556.556.556h5.278A2.728 2.728 0 008.5 16.957c1.31 0 2.408-.931 2.666-2.167h5.278a.556.556 0 00.556-.556c0-.563-.244-1.095-.668-1.46zM8.5 15.845c-.693 0-1.285-.44-1.511-1.055h3.022A1.613 1.613 0 018.5 15.845zm-7.169-2.167a.827.827 0 01.065-.063c2.332-2.013 3.327-4.61 3.327-8.683A3.781 3.781 0 018.5 1.155a3.781 3.781 0 013.777 3.777c0 4.07.995 6.666 3.328 8.684.023.02.044.04.065.062H1.33z"
          fill="#111111"/>
</svg>
