<svg xmlns="http://www.w3.org/2000/svg" version="1.1" width="80" height="80" x="0" y="0" viewBox="0 0 512 512"
     style="enable-background:new 0 0 512 512" xml:space="preserve" class="">
    <g><path xmlns="http://www.w3.org/2000/svg" d="m352 412c0 11.046-8.954 20-20 20h-172c-44.112 0-80-35.888-80-80v-232h-60c-11.046 0-20-8.954-20-20s8.954-20 20-20h60v-60c0-11.046 8.954-20 20-20s20 8.954 20 20v332c0 22.056 17.944 40 40 40h172c11.046 0 20 8.954 20 20zm140-20h-60v-232c0-44.112-35.888-80-80-80h-172c-11.046 0-20 8.954-20 20s8.954 20 20 20h172c22.056 0 40 17.944 40 40v332c0 11.046 8.954 20 20 20s20-8.954 20-20v-60h60c11.046 0 20-8.954 20-20s-8.954-20-20-20zm-30-392h-60c-11.046 0-20 8.954-20 20s8.954 20 20 20h60c5.514 0 10 4.486 10 10v60c0 11.046 8.954 20 20 20s20-8.954 20-20v-60c0-27.57-22.43-50-50-50zm-352 472h-60c-5.514 0-10-4.486-10-10v-60c0-11.046-8.954-20-20-20s-20 8.954-20 20v60c0 27.57 22.43 50 50 50h60c11.046 0 20-8.954 20-20s-8.954-20-20-20z" fill="#12b6ed" /></g>
</svg>
