<svg width="25" height="25" viewBox="0 0 25 25" fill="none" xmlns="http://www.w3.org/2000/svg">
    <path d="M12.5 19.7021C13.1742 19.7021 13.7207 19.1556 13.7207 18.4814C13.7207 17.8073 13.1742 17.2607 12.5 17.2607C11.8258 17.2607 11.2793 17.8073 11.2793 18.4814C11.2793 19.1556 11.8258 19.7021 12.5 19.7021Z"
          fill="white"/>
    <path d="M12.5 0C5.59082 0 0 5.59082 0 12.5C0 19.4092 5.59082 25 12.5 25C19.4092 25 25 19.4092 25 12.5C25 5.59082 19.4092 0 12.5 0ZM12.5 23.0469C6.66992 23.0469 1.95312 18.3301 1.95312 12.5C1.95312 6.66992 6.66992 1.95312 12.5 1.95312C18.3301 1.95312 23.0469 6.66992 23.0469 12.5C23.0469 18.3301 18.3301 23.0469 12.5 23.0469Z"
          fill="white"/>
    <path d="M12.5 6.27441C10.3467 6.27441 8.59375 8.02734 8.59375 10.1807C8.59375 10.7178 9.0332 11.1572 9.57031 11.1572C10.1074 11.1572 10.5469 10.7178 10.5469 10.1807C10.5469 9.10156 11.4209 8.22754 12.5 8.22754C13.5791 8.22754 14.4531 9.10156 14.4531 10.1807C14.4531 11.2598 13.5791 12.1338 12.5 12.1338C11.9629 12.1338 11.5234 12.5732 11.5234 13.1104V15.5518C11.5234 16.0889 11.9629 16.5283 12.5 16.5283C13.0371 16.5283 13.4766 16.0889 13.4766 15.5518V13.9648C15.1611 13.5303 16.4062 11.9971 16.4062 10.1807C16.4062 8.02734 14.6533 6.27441 12.5 6.27441Z"
          fill="white"/>
</svg>
